<?xml version="1.0" encoding="utf-8"?>
<!-- Generator: Adobe Illustrator 20.1.0, SVG Export Plug-In . SVG Version: 6.00 Build 0)  -->
<svg version="1.1" id="Layer_1" xmlns="http://www.w3.org/2000/svg" xmlns:xlink="http://www.w3.org/1999/xlink" x="0px" y="0px"
	 viewBox="0 0 800 600" style="enable-background:new 0 0 800 600;" xml:space="preserve">
<style type="text/css">
	.st0{fill-rule:evenodd;clip-rule:evenodd;fill:#1A1A1A;}
	.st1{fill:#1A1A1A;}
	.st2{fill-rule:evenodd;clip-rule:evenodd;}
</style>
<g>
	<path class="st0" d="M245.2,339.2c-4.7-8.7-12.8-12.1-22.2-12.1c-13.7,0-24.6,9.7-24.6,26.1c0,16.7,10.2,26.1,25,26.1
		c9.5,0,17.6-5.2,22.1-13.1l-10.4-5.3c-2.3,5.6-5.9,7.3-10.3,7.3c-7.7,0-11.3-6.4-11.3-14.9c0-8.5,3-14.9,11.3-14.9
		c2.2,0,6.7,1.2,9.3,6.8L245.2,339.2z"/>
	<path class="st0" d="M271.8,338.3c8.3,0,11.8,6.4,11.8,14.3c0,9-3.5,15.5-11.8,15.5c-8.3,0-11.8-6.4-11.8-14.9
		C260,344.7,263.6,338.3,271.8,338.3z M271.8,327.1c-15.5,0-26.3,9.4-26.3,26.1c0,16.7,10.9,26.1,26.3,26.1
		c15.5,0,26.3-9.4,26.3-26.1C298.2,336.5,287.3,327.1,271.8,327.1z"/>
	<path class="st0" d="M301.2,377.9h14.5v-30.8c0-4.5,1.9-8.3,7.7-8.3c5.6,0,7.1,3.3,7.1,8.1v31H345v-30.4c0-5,2.5-8.7,7.4-8.7
		c5.5,0,7.4,3.2,7.4,10.1v28.9h14.5v-37.8c0-11.4-10.4-13-15.3-13c-5.8,0-11.2,1.8-15.9,6.6c-3.3-4.4-7.4-6.6-13.1-6.6
		c-4.5,0-10.6,1.3-14.3,5.7v-4.4h-14.5V377.9z"/>
	<path class="st0" d="M379,377.9h14.5v-30.8c0-4.5,1.9-8.3,7.7-8.3c5.6,0,7.1,3.3,7.1,8.1v31h14.5v-30.4c0-5,2.5-8.7,7.4-8.7
		c5.5,0,7.4,3.2,7.4,10.1v28.9h14.5v-37.8c0-11.4-10.4-13-15.3-13c-5.8,0-11.2,1.8-15.9,6.6c-3.3-4.4-7.4-6.6-13.1-6.6
		c-4.5,0-10.6,1.3-14.3,5.7v-4.4H379V377.9z"/>
	<path class="st0" d="M481.4,338.3c8.3,0,11.8,6.4,11.8,14.3c0,9-3.5,15.5-11.8,15.5c-8.3,0-11.8-6.4-11.8-14.9
		C469.6,344.7,473.2,338.3,481.4,338.3z M481.4,327.1c-15.5,0-26.3,9.4-26.3,26.1c0,16.7,10.9,26.1,26.3,26.1
		c15.5,0,26.3-9.4,26.3-26.1C507.8,336.5,496.9,327.1,481.4,327.1z"/>
	<path class="st0" d="M511.7,377.9h14.5v-30.8c0-4.5,1.9-8.3,7.7-8.3c5.6,0,7.1,3.3,7.1,8.1v31h14.5v-36.6c0-7.4-3.3-14.2-15-14.2
		c-4.5,0-10.6,1.3-14.3,5.7v-4.4h-14.5V377.9z"/>
	<path class="st0" d="M604,334.3c-6.7-4.5-14.2-7.2-21.9-7.2c-10.1,0-20.9,4.8-20.9,17.3c0,17.6,29.3,11.4,29.3,19.2
		c0,4.5-5.5,5-7.9,5c-6.6,0-11.2-2.7-15.6-7l-9,7.8c7.3,6.7,13.4,9.8,24.2,9.8c10.8,0,22.3-4.7,22.3-17.7c0-18.5-29.3-11.5-29.3-20
		c0-2.5,2.6-3.8,6.2-3.8c4.6,0,10.8,1.9,13.7,5.3L604,334.3z"/>
</g>
<g>
	<path class="st0" d="M245.2,282.3c-4.7-8.7-12.8-12.1-22.2-12.1c-13.7,0-24.6,9.7-24.6,26.1c0,16.7,10.2,26.1,25,26.1
		c9.5,0,17.6-5.2,22.1-13.1l-10.4-5.3c-2.3,5.6-5.9,7.3-10.3,7.3c-7.7,0-11.3-6.4-11.3-14.9c0-8.5,3-14.9,11.3-14.9
		c2.2,0,6.7,1.2,9.3,6.8L245.2,282.3z"/>
	<path class="st0" d="M248.8,321h14.5v-28.7c0-5.5,3.4-7,12.1-8l1.6-0.2l-0.1-12.8c-5.1,0.4-10.4,2.2-13.6,5.2v-5h-14.5V321z"/>
	<path class="st0" d="M326.3,299.2c-0.1-15.3-6.2-29-24.3-29c-15.1,0-24.3,10.1-24.3,27.6c0,14,8.9,24.6,24.3,24.6
		c11.1,0,19-4.4,24-13.7l-10.9-5.7c-4.2,6-6.7,8.7-12.1,8.7c-4.7,0-10.7-3-10.8-12.5H326.3z M292,290.3c0.7-6.5,5.7-9.5,9.9-9.5
		s9.4,2.2,9.9,9.5H292z"/>
	<path class="st0" d="M359.6,300.3c0,7.5-4.3,11.4-10,11.4c-3.5,0-6.8-1.7-6.8-5.6c0-4,3.4-5.4,7-6.4l9.8-2.8V300.3z M373.6,284.5
		c-0.1-11.2-8.6-14.3-22.1-14.3c-6.7,0-19.9,1.3-20.4,15.5h14c0.7-4.9,3-6.6,7.6-6.6c3.9,0,6.9,1.6,6.9,5.3v4.1l-5.3,0.7
		c-15.8,2.2-25.4,6.4-25.4,18.3c0,9.5,7.1,14.7,16.6,14.7c5.2,0,12.5-2.5,14.9-6.4h0.2c0.1,1.7,0.4,3.4,0.9,5.1h13.4
		c-1.2-3.1-1.3-6.9-1.3-10.3V284.5z"/>
	<path class="st0" d="M407.7,272.4H399v-14.3h-14.5v14.3h-7.1v8.9h7.1v26.1c0,7.2,1.8,14.9,14.2,14.9c3.2,0,7.4-0.4,9.3-0.6v-11.4
		c-0.7,0.1-2.8,0.3-4.4,0.3c-2.6,0-4.6-1-4.6-4.9v-24.3h8.7V272.4z"/>
	<path class="st0" d="M413.2,271.5V321h14.5v-49.5H413.2z M427.7,265.9v-11.2h-14.5v11.2H427.7z"/>
	<polygon class="st0" points="447.2,321 461.8,321 478.8,271.5 463.3,271.5 454.8,306.5 454.6,306.5 446,271.5 430.5,271.5 	"/>
	<path class="st0" d="M525.7,299.2c-0.1-15.3-6.2-29-24.3-29c-15.1,0-24.3,10.1-24.3,27.6c0,14,8.9,24.6,24.3,24.6
		c11.1,0,19-4.4,24-13.7l-10.9-5.7c-4.2,6-6.7,8.7-12.1,8.7c-4.7,0-10.7-3-10.8-12.5H525.7z M491.4,290.3c0.7-6.5,5.7-9.5,9.9-9.5
		c4.2,0,9.4,2.2,9.9,9.5H491.4z"/>
</g>
<g>
	<path class="st1" d="M474.7,400.7c-2.5,3.6-6.3,3.8-10.2,3.8H460v8.8h-6.7v-26.9h13.3c2.5,0,4.9,0.3,7,2.1c0.3,0.2,0.8,0.6,1.2,1.3
		c0.6,0.9,1.5,2.8,1.5,5.5C476.3,396.2,476.2,398.5,474.7,400.7z M468.9,392.9c-1.1-1.5-3-1.5-4.6-1.5H460v8.1h4.1
		c1.2,0,1.7,0,2.3-0.1c2.4-0.4,3.3-1.8,3.3-4.1C469.6,394,469.2,393.4,468.9,392.9z"/>
	<path class="st1" d="M494.5,411.6c-1.1,1-3.5,2.3-7.2,2.3c-1,0-5.1-0.2-7.8-2.9c-1.2-1.1-2.9-3.6-2.9-7.7c0-1.1,0.1-4.4,2.3-7.1
		c1.4-1.6,4.1-3.7,9.1-3.4c2.3,0.1,4.4,0.6,6.2,2.1c2.5,2,3.7,5.2,3.7,8.4C498,407.9,495.8,410.4,494.5,411.6z M489.9,398.2
		c-0.5-0.4-1.3-0.8-2.9-0.8c-0.3,0-1.4,0.1-2.2,0.6c-1.1,0.6-2.3,2.3-2.3,5.3c0,1.9,0.6,3.4,1,4c0.5,0.7,1.6,1.9,3.8,1.9
		c3.2,0,4.7-2.7,4.7-5.7C492,400.5,491.1,399,489.9,398.2z"/>
	<path class="st1" d="M510.2,398.7c-0.2,0-1.1,0.2-1.8,0.4c-1.6,0.5-1.8,1.5-1.8,3v11.2h-5.8v-19.9h5.7v2.1c0.5-0.4,1-1,2.3-1.5
		c1.6-0.6,2.7-0.7,3.4-0.8v5.2L510.2,398.7z"/>
	<path class="st1" d="M522.9,397.5v8.9c0,0.8,0,1.3,0.2,1.6c0.3,0.6,1.3,0.6,1.4,0.6c0.7,0,1.4,0,2.1,0v4.5
		c-0.4,0.1-1.8,0.3-3.1,0.3c-0.4,0-0.8,0-1.2,0c-0.5,0-2.3,0-3.6-1.2c-1.5-1.3-1.4-3.3-1.4-5.2v-9.6h-2.9v-3.6h2.9v-6.2h5.8v6.2h3.9
		v3.6H522.9z"/>
	<path class="st1" d="M541.5,413.3v-1.9c-0.4,0.5-0.6,0.7-0.9,0.9c-0.7,0.6-2.5,1.6-4.9,1.6c-0.5,0-2.7,0-4.2-1.2
		c-2.2-1.8-2-4.9-2-7.4v-11.8h5.9v12.4c0,1.3,0,2.2,1.1,2.9c0.3,0.2,0.8,0.5,1.7,0.5c1.9,0,2.9-1.1,3.1-1.8c0.2-0.5,0.2-1,0.2-1.5
		v-12.4h5.8v19.9H541.5z"/>
	<path class="st1" d="M569.4,414.1c-0.1,1-0.4,3.2-2.7,4.7c-2.5,1.6-6.5,1.6-7,1.6c-3.7,0-6.1-1.2-7.2-2.1c-0.5-0.4-0.7-0.7-0.9-1
		c-1.1-1.6-1-3.4-1-4h6.1c0.1,0.9,0.1,1.5,0.8,2.2c0.5,0.5,1.3,1.1,2.9,1.1c0.2,0,1.8,0,2.6-0.8c0.9-0.8,0.9-1.8,0.9-2.9l0-2.2
		c-0.2,0.2-0.7,0.5-1.3,0.8c-0.6,0.3-2.1,0.9-3.9,0.9c-3.2,0-8.2-1.9-8.2-9.6c0-5.3,2.8-8.1,4.8-9c0.6-0.3,1.9-0.7,3.6-0.7
		c2.1,0,3.5,0.8,4.2,1.2c0.5,0.3,0.7,0.6,1.1,1v-1.8h5.5v19.1C569.5,413,569.4,413.6,569.4,414.1z M563,399
		c-0.4-0.6-1.4-1.6-3.3-1.6c-0.2,0-1.1,0.1-1.8,0.5c-1.8,1.3-1.7,4.6-1.7,4.8c0,0.5,0,1,0.1,1.4c0.1,1,0.5,3.7,3.7,3.7
		c1.3,0,1.9-0.4,2.3-0.8c1.2-1.1,1.3-3,1.3-4.4C563.6,401.8,563.5,400,563,399z"/>
	<path class="st1" d="M585.3,413.3v-1.8c-0.4,0.3-0.8,0.6-1.2,0.8c-0.7,0.5-2.4,1.5-4.9,1.5c-3.6,0-5.2-1.9-5.9-3.3
		c-0.4-0.8-0.6-1.8-0.6-2.8c0-3.6,3.2-5.3,4.1-5.7c1.5-0.6,4.2-1.2,8-1.9v-1.1c0-0.7-0.1-2.4-2.2-2.4c-1.7,0-2.5,0.8-2.8,1.4
		c-0.1,0.2-0.2,0.5-0.3,0.9h-5.9c0.1-0.8,0.1-2.5,1.6-4c1.6-1.6,3.8-1.9,4.5-2c1.1-0.2,2.1-0.2,2.5-0.2c2.8,0,6.5,0.6,7.9,3.5
		c0.2,0.5,0.4,1.1,0.4,2.2v11.6c0,1.7,0.1,2.4,0.6,3.1H585.3z M581,405c-0.2,0.1-0.5,0.2-0.7,0.3c-1.4,0.6-1.8,1.4-1.8,2.2
		c0,0.1,0,0.5,0.2,0.9c0.2,0.4,0.8,1.1,2,1.1c1.1,0,2-0.6,2.2-0.8c1.7-1.2,1.8-3.1,1.8-4.9L581,405z"/>
	<path class="st1" d="M594.9,413.3v-26.9h5.8v26.9H594.9z"/>
</g>
<g>
	<g>
		<g>
			<path d="M286.4,235c-1.6,2.3-4.1,2.5-6.7,2.5h-2.9v5.8h-4.4v-17.6h8.7c1.7,0,3.2,0.2,4.6,1.4c0.2,0.1,0.5,0.4,0.8,0.9
				c0.4,0.6,1,1.8,1,3.6C287.4,232,287.4,233.6,286.4,235z M282.6,229.8c-0.7-1-2-1-3-1h-2.8v5.3h2.7c0.8,0,1.1,0,1.5-0.1
				c1.5-0.2,2.2-1.2,2.1-2.7C283.1,230.6,282.8,230.2,282.6,229.8z"/>
			<path d="M297,229.1v14.1h-4.4v-14.1H288v-3.5h13.6v3.5H297z"/>
		</g>
		<path d="M305.9,214.1c-5.5-5.5-12.3-8.3-20.2-8.3c-7.8,0-14.4,2.7-19.8,8.2c-2.7,2.7-4.8,5.8-6.2,9.3c-1.4,3.4-2.1,7-2.1,10.8
			c0,3.8,0.7,7.3,2.1,10.7c1.4,3.4,3.5,6.4,6.2,9.2c2.7,2.7,5.8,4.8,9.2,6.2c3.4,1.4,7,2.1,10.7,2.1c3.7,0,7.3-0.7,10.8-2.2
			c3.5-1.4,6.6-3.5,9.4-6.3c2.7-2.6,4.7-5.6,6-9c1.4-3.4,2-7,2-10.9c0-3.8-0.7-7.5-2.1-10.9C310.6,219.8,308.6,216.8,305.9,214.1z
			 M302.3,250.3c-2.3,2.2-4.9,3.9-7.7,5.1c-2.8,1.2-5.8,1.8-8.8,1.8c-3.1,0-6-0.6-8.8-1.7c-2.8-1.2-5.3-2.8-7.5-5
			c-2.2-2.2-3.9-4.7-5.1-7.5c-1.2-2.8-1.8-5.7-1.8-8.8c0-3.1,0.6-6,1.8-8.8c1.2-2.8,2.9-5.3,5.1-7.6c4.4-4.5,9.8-6.8,16.3-6.8
			c6.4,0,11.9,2.3,16.4,6.8c2.2,2.2,3.9,4.7,5,7.5c1.1,2.8,1.7,5.8,1.7,8.9C309,240.6,306.7,246,302.3,250.3z"/>
	</g>
	<g>
		<path class="st2" d="M226.5,205.7c-7.7,0-14.5,2.9-19.8,8.2c-5.4,5.5-8.3,12.6-8.3,20c0,7.5,2.9,14.4,8.3,19.8
			c5.4,5.4,12.4,8.3,19.8,8.3c7.4,0,14.6-2.9,20.2-8.4c5.3-5.2,8-12,8-19.8c0-7.6-2.8-14.6-8.1-19.9
			C241.2,208.5,234.2,205.7,226.5,205.7z M226.6,210.8c6.3,0,12,2.4,16.4,6.8c4.3,4.3,6.6,10,6.6,16.3c0,6.3-2.2,11.9-6.6,16.1
			c-4.6,4.5-10.4,6.9-16.4,6.9c-6.1,0-11.8-2.4-16.2-6.8c-4.4-4.4-6.9-10.2-6.9-16.2c0-6.1,2.5-11.9,6.9-16.4
			C214.7,213.1,220.3,210.8,226.6,210.8z"/>
		<path class="st2" d="M226.2,229.2c-1.6-2.9-4.3-4.1-7.5-4.1c-4.6,0-8.2,3.2-8.2,8.7c0,5.6,3.4,8.7,8.4,8.7c3.2,0,5.9-1.7,7.4-4.4
			l-3.5-1.8c-0.8,1.9-2,2.4-3.5,2.4c-2.6,0-3.8-2.2-3.8-5c0-2.8,1-5,3.8-5c0.7,0,2.2,0.4,3.1,2.3L226.2,229.2z"/>
		<path class="st2" d="M242.5,229.2c-1.6-2.9-4.3-4.1-7.5-4.1c-4.6,0-8.2,3.2-8.2,8.7c0,5.6,3.4,8.7,8.4,8.7c3.2,0,5.9-1.7,7.4-4.4
			l-3.5-1.8c-0.8,1.9-2,2.4-3.5,2.4c-2.6,0-3.8-2.2-3.8-5c0-2.8,1-5,3.8-5c0.7,0,2.2,0.4,3.1,2.3L242.5,229.2z"/>
	</g>
</g>
</svg>
