<?xml version="1.0" encoding="utf-8"?>
<!-- Generator: Adobe Illustrator 20.1.0, SVG Export Plug-In . SVG Version: 6.00 Build 0)  -->
<svg version="1.1" id="Layer_1" xmlns="http://www.w3.org/2000/svg" xmlns:xlink="http://www.w3.org/1999/xlink" x="0px" y="0px"
	 viewBox="0 0 800 600" style="enable-background:new 0 0 800 600;" xml:space="preserve">
<style type="text/css">
	.st0{fill-rule:evenodd;clip-rule:evenodd;}
</style>
<g>
	<g>
		<g>
			<path d="M529.1,310c-6.3,9-15.9,9.7-25.7,9.7h-11.3v22.1h-17v-67.6h33.5c6.4,0,12.5,0.8,17.6,5.3c0.7,0.6,1.9,1.6,3.1,3.4
				c1.4,2.2,3.7,7.1,3.7,13.8C533.1,298.8,532.8,304.6,529.1,310z M514.5,290.4c-2.7-3.7-7.6-3.7-11.6-3.7h-10.8v20.5h10.2
				c3,0,4.2,0,5.7-0.3c5.9-1,8.3-4.6,8.2-10.3C516.4,293.2,515.4,291.6,514.5,290.4z"/>
			<path d="M570,287.5v54.3h-17v-54.3h-17.6v-13.3h52.2v13.3H570z"/>
		</g>
		<path d="M604.2,230c-21.3-21.2-47.1-31.8-77.5-31.8c-30.1,0-55.5,10.5-76.1,31.6c-10.5,10.5-18.4,22.3-23.9,35.6
			c-5.5,13.2-8.2,27-8.2,41.4c0,14.5,2.7,28.2,8.1,41.3c5.4,13,13.3,24.8,23.7,35.2c10.4,10.4,22.2,18.3,35.3,23.8
			c13.1,5.5,26.8,8.2,41.2,8.2c14.3,0,28.2-2.8,41.7-8.3c13.4-5.6,25.4-13.6,36-24c10.2-9.9,17.9-21.4,23.2-34.4
			c5.2-13,7.8-26.9,7.8-41.8c0-14.7-2.6-28.6-7.9-41.8C622.1,251.8,614.4,240.2,604.2,230z M590.4,368.9c-8.8,8.5-18.6,15-29.5,19.6
			c-10.9,4.5-22.2,6.8-33.8,6.8c-11.8,0-23-2.2-33.7-6.7c-10.7-4.5-20.3-10.9-28.9-19.4c-8.5-8.5-15.1-18.1-19.7-28.9
			c-4.6-10.8-6.9-22-6.9-33.6c0-11.8,2.3-23,6.9-33.8c4.6-10.8,11.1-20.5,19.7-29.2c16.9-17.3,37.8-26,62.6-26
			c24.5,0,45.5,8.7,63,26.2c8.4,8.4,14.8,18,19.2,28.7c4.4,10.7,6.6,22.1,6.6,34.1C615.8,331.6,607.3,352.4,590.4,368.9z"/>
	</g>
	<g>
		<path class="st0" d="M290,197.5c-29.7,0-55.8,11-75.9,31.4c-20.8,21.1-32,48.3-32,76.8c0,28.8,11,55.5,31.7,76.2
			c20.8,20.8,47.7,32,76.2,32c28.5,0,56.1-11.3,77.4-32.3c20.2-19.9,30.8-46.3,30.8-75.9c0-29.4-10.7-56.1-31.1-76.5
			C346.4,208.4,319.7,197.5,290,197.5z M290.3,217c24.3,0,46,9.2,62.9,26.1c16.6,16.6,25.5,38.6,25.5,62.6c0,24.3-8.6,45.7-25.2,62
			c-17.5,17.2-40,26.4-63.2,26.4c-23.4,0-45.4-9.2-62.3-26.1c-16.9-16.9-26.4-39.2-26.4-62.3c0-23.4,9.5-45.7,26.4-62.9
			C244.7,225.9,266,217,290.3,217z"/>
		<path class="st0" d="M288.9,287.7c-6.1-11.2-16.5-15.6-28.7-15.6c-17.6,0-31.7,12.5-31.7,33.6c0,21.5,13.2,33.6,32.3,33.6
			c12.2,0,22.7-6.7,28.4-16.9l-13.4-6.8c-3,7.2-7.6,9.4-13.3,9.4c-10,0-14.5-8.3-14.5-19.2c0-10.9,3.8-19.2,14.5-19.2
			c2.9,0,8.6,1.6,12,8.8L288.9,287.7z"/>
		<path class="st0" d="M351.4,287.7c-6.1-11.2-16.5-15.6-28.7-15.6c-17.6,0-31.7,12.5-31.7,33.6c0,21.5,13.2,33.6,32.3,33.6
			c12.2,0,22.7-6.7,28.4-16.9l-13.4-6.8c-3,7.2-7.6,9.4-13.3,9.4c-10,0-14.5-8.3-14.5-19.2c0-10.9,3.8-19.2,14.5-19.2
			c2.9,0,8.6,1.6,12,8.8L351.4,287.7z"/>
	</g>
</g>
</svg>
